<?xml version="1.0" encoding="UTF-8"?>
<svg version="1.1" xmlns="http://www.w3.org/2000/svg" width="1024" height="224">
<path d="M0 0 C17.47075494 14.9844143 27.60912589 36.34806601 30.02529907 59.06072998 C30.44336074 64.78478338 30.34682317 70.5217369 30.32421875 76.2578125 C30.32234978 77.63500415 30.32092814 79.01219648 30.31993103 80.38938904 C30.31614353 83.98468923 30.30634618 87.57994794 30.29522705 91.17523193 C30.28493119 94.85574788 30.28041603 98.53627063 30.27539062 102.21679688 C30.26471988 109.41668761 30.24715438 116.6165358 30.2265625 123.81640625 C26.2665625 123.81640625 22.3065625 123.81640625 18.2265625 123.81640625 C17.02850084 120.44348491 16.02252737 117.0858984 15.21875 113.6015625 C10.90876019 95.13408689 2.66496411 77.61718819 -12.7734375 65.81640625 C-13.49917969 65.2440625 -14.22492188 64.67171875 -14.97265625 64.08203125 C-31.963818 51.38780792 -51.91163816 46.38856511 -72.92431641 49.09326172 C-93.02407496 52.45833647 -110.30318007 63.88473545 -122.7734375 79.81640625 C-132.61856638 93.69731407 -137.35650639 108.39503735 -140.7734375 124.81640625 C-144.4034375 124.81640625 -148.0334375 124.81640625 -151.7734375 124.81640625 C-151.86704741 116.39162067 -151.93765521 107.96706046 -151.98068619 99.54187965 C-152.00136236 95.62766482 -152.02930261 91.71381153 -152.07519531 87.79980469 C-152.45362534 54.626027 -148.45294566 28.4567212 -124.60546875 3.59765625 C-90.47194205 -29.92382101 -36.05784024 -29.8892508 0 0 Z " fill="#4E71FE" transform="translate(205.7734375,59.18359375)"/>
<path d="M0 0 C1.36125 1.3303125 1.36125 1.3303125 2.75 2.6875 C2.75 3.3475 2.75 4.0075 2.75 4.6875 C3.41 4.6875 4.07 4.6875 4.75 4.6875 C6.3016192 6.55005272 7.69012375 8.38516711 9.0625 10.375 C9.46404297 10.95572266 9.86558594 11.53644531 10.27929688 12.13476562 C16.87182283 22.0288797 19.75 31.87928942 19.75 43.6875 C-41.135 44.1825 -41.135 44.1825 -103.25 44.6875 C-101.61894258 26.74586842 -96.43932728 12.56000961 -83.07421875 -0.02734375 C-58.46131604 -19.94234802 -24.62730459 -20.18550616 0 0 Z " fill="#4F71FE" transform="translate(186.25,139.3125)"/>
<path d="M0 0 C5.24697519 -0.04977792 10.4938101 -0.0858971 15.7409668 -0.10986328 C17.52256671 -0.11986411 19.30415044 -0.13346916 21.08569336 -0.15087891 C23.66003433 -0.17538957 26.23415657 -0.18654248 28.80859375 -0.1953125 C29.98572182 -0.21079636 29.98572182 -0.21079636 31.18663025 -0.22659302 C39.86936721 -0.2283186 48.31581253 1.08532396 55 7 C58.95353408 11.90015492 59.63936037 17.15070576 59.3828125 23.31640625 C58.69675175 28.12583215 57.1245114 32.08685581 53.46875 35.37890625 C51.31861428 36.89137917 49.67778958 38 47 38 C47 38.66 47 39.32 47 40 C48.051875 40.0928125 48.051875 40.0928125 49.125 40.1875 C54.1006688 41.59366727 57.04805228 44.55566553 59.8125 48.75 C62.37607865 55.76610999 62.90775754 62.99155875 60 70 C56.28861006 75.78238653 51.54993539 79.83301203 45 82 C39.92069373 83.06535168 35.04383861 83.13005768 29.8828125 83.09765625 C29.02565643 83.0962413 28.16850037 83.09482635 27.28536987 83.09336853 C24.5652101 83.08780022 21.84513462 83.07525364 19.125 83.0625 C17.27343869 83.0574809 15.42187609 83.05291871 13.5703125 83.04882812 C9.04684285 83.03784117 4.52343568 83.02059852 0 83 C-0.15375278 72.62118882 -0.30193433 62.24231459 -0.4429636 51.86332226 C-0.50862193 47.04417243 -0.57621383 42.22506575 -0.64819336 37.40600586 C-0.71756043 32.75712276 -0.78188927 28.10819496 -0.84269524 23.45919228 C-0.86680856 21.68372368 -0.89275073 19.90827896 -0.92053413 18.132864 C-0.95907798 15.65005605 -0.99117387 13.16724347 -1.02172852 10.68432617 C-1.03467453 9.94705292 -1.04762054 9.20977966 -1.06095886 8.45016479 C-1.09329227 5.33942779 -0.99251297 2.9775389 0 0 Z M17 13 C16.01399013 17.10837446 15.86610878 20.96861834 15.875 25.1875 C15.87242187 26.41855469 15.86984375 27.64960937 15.8671875 28.91796875 C15.78611051 31.91246397 15.78611051 31.91246397 17 34 C28.43685729 34.69781464 28.43685729 34.69781464 39 31 C41.48256099 28.51743901 41.68098969 26.45876632 42.03515625 23.03515625 C41.98260613 19.99308801 40.90443063 18.31252291 39 16 C32.61212191 11.7414146 24.40943497 12.89050096 17 13 Z M17 46 C15.67424506 50.82181981 16.09937561 55.38832067 16.4375 60.3125 C16.48970703 61.14845703 16.54191406 61.98441406 16.59570312 62.84570312 C16.72467371 64.89750789 16.86155021 66.94881306 17 69 C20.06303578 69.08115993 23.12390815 69.14057409 26.1875 69.1875 C27.05181641 69.21263672 27.91613281 69.23777344 28.80664062 69.26367188 C33.72579386 69.32021387 37.00304609 69.2053242 41 66 C43.883789 63.116211 43.92462198 59.91211908 44 56 C43.26673361 52.7736279 42.30114294 51.32477388 40.05859375 48.90625 C35.68036048 46.17754268 31.75291046 46.3287555 26.6875 46.25 C25.75615234 46.22035156 24.82480469 46.19070312 23.86523438 46.16015625 C21.57673735 46.08974096 19.28924191 46.03690786 17 46 Z " fill="#011177" transform="translate(627,73)"/>
<path d="M0 0 C3.3125 2.125 3.3125 2.125 5.3125 4.125 C5.9725 2.145 6.6325 0.165 7.3125 -1.875 C12.5925 -1.545 17.8725 -1.215 23.3125 -0.875 C23.27202073 7.55794805 23.21471586 15.99028402 23.12859726 24.42287254 C23.08925512 28.33938535 23.05700232 32.25567779 23.04150391 36.17236328 C23.02624894 39.95927321 22.99164992 43.74557676 22.94419098 47.53221512 C22.92946748 48.969679 22.92146422 50.40722949 22.92061615 51.84476852 C22.90930325 61.41423956 22.31037111 69.90598927 16.3046875 77.74609375 C8.59370557 84.36160407 1.26665136 86.75056445 -8.890625 86.40625 C-17.34169133 85.5564221 -24.62784571 83.28446036 -30.6875 77.125 C-32.71515593 74.36784747 -34.6875 71.65681413 -34.6875 68.125 C-33.1322088 67.42134398 -31.56785173 66.73770622 -30 66.0625 C-29.12988281 65.67964844 -28.25976562 65.29679687 -27.36328125 64.90234375 C-24.3171116 64.01739811 -22.67413653 64.10892778 -19.6875 65.125 C-19.130625 65.929375 -18.57375 66.73375 -18 67.5625 C-14.55149437 71.38381705 -10.71005515 71.823488 -5.6875 72.125 C-1.77927849 71.3433557 0.91223514 70.36535755 3.3125 67.125 C5.68311328 62.75808079 5.47684622 58.97321346 5.3125 54.125 C4.755625 54.74375 4.19875 55.3625 3.625 56 C-0.54410237 59.83106704 -5.09895405 60.85887876 -10.6875 61.125 C-19.06880165 60.05136218 -25.15247535 57.60926801 -30.6875 51.125 C-37.25565154 42.05937767 -37.68564068 31.88245475 -36.6875 21.125 C-34.97721755 12.5428641 -30.79868547 6.09911558 -23.9140625 0.74609375 C-16.90778366 -3.49610462 -7.29904605 -3.53651411 0 0 Z M-16.6875 15.125 C-20.84716802 22.23669049 -21.16940596 28.9784024 -19.3359375 36.82421875 C-18.2849671 40.55326431 -17.43731436 43.11549171 -13.9609375 45.12109375 C-9.28733227 47.15113463 -5.68792371 47.54021426 -0.6875 46.125 C3.32567737 43.62791186 4.91821956 41.58546354 6.3125 37.125 C6.66593161 33.51742693 6.66593161 33.51742693 6.625 29.6875 C6.64175781 28.41003906 6.65851562 27.13257812 6.67578125 25.81640625 C6.17533881 20.73126536 4.6109788 17.45954766 1.0625 13.8125 C-5.29362138 9.91215279 -10.96711758 10.61842333 -16.6875 15.125 Z " fill="#001178" transform="translate(879.6875,94.875)"/>
<path d="M0 0 C1.7290774 -0.02725341 3.45828176 -0.04650987 5.1875 -0.0625 C6.15042969 -0.07410156 7.11335938 -0.08570312 8.10546875 -0.09765625 C10.85576513 -0.00486622 13.32479591 0.37888315 16 1 C16.93934321 8.56346023 17.12216523 16.01002662 17.0625 23.625 C17.041875 27.37875 17.02125 31.1325 17 35 C28.88 35 40.76 35 53 35 C53 23.78 53 12.56 53 1 C58.28 1 63.56 1 69 1 C69.86947283 5.34736413 70.14206759 9.23476618 70.12939453 13.62011719 C70.13202301 14.74534035 70.13202301 14.74534035 70.13470459 15.89329529 C70.13908953 18.36117903 70.13619816 20.82899059 70.1328125 23.296875 C70.13348622 25.01369236 70.13445682 26.73050963 70.13571167 28.44732666 C70.13718385 32.03829866 70.13504844 35.62924574 70.13037109 39.22021484 C70.12465687 43.83291975 70.12796651 48.44556669 70.13394356 53.0582695 C70.13754747 56.59945111 70.13641167 60.14061883 70.13381577 63.68180084 C70.13314691 65.38353736 70.13397347 67.08527513 70.13629532 68.78701019 C70.13882091 71.15719474 70.1349834 73.52728356 70.12939453 75.89746094 C70.13141876 76.6060173 70.13344299 77.31457367 70.13552856 78.04460144 C70.11426639 82.88573361 70.11426639 82.88573361 69 84 C66.92429485 84.29024691 64.83813403 84.50724628 62.75 84.6875 C61.04070312 84.84798828 61.04070312 84.84798828 59.296875 85.01171875 C55.96833986 84.99988746 53.96031993 84.45233741 51 83 C51.66 82.67 52.32 82.34 53 82 C52.67 71.44 52.34 60.88 52 50 C40.45 50 28.9 50 17 50 C17.03959995 60.81533243 17.03959995 60.81533243 17.09008789 71.63061523 C17.09300716 72.98160727 17.09555569 74.33260019 17.09765625 75.68359375 C17.10277222 76.39100708 17.10788818 77.09842041 17.11315918 77.82727051 C17.11347032 79.55192617 17.06225761 81.27646838 17 83 C16 84 16 84 12.40234375 84.09765625 C10.91403133 84.0909822 9.42573568 84.07902183 7.9375 84.0625 C7.17888672 84.05798828 6.42027344 84.05347656 5.63867188 84.04882812 C3.75908129 84.0370068 1.87953101 84.01907078 0 84 C-1.50752406 80.98495188 -1.1386034 77.87506736 -1.12939453 74.56860352 C-1.13114685 73.80259827 -1.13289917 73.03659302 -1.13470459 72.24737549 C-1.13911625 69.70786289 -1.13618723 67.16841959 -1.1328125 64.62890625 C-1.13348581 62.86775194 -1.13445606 61.10659772 -1.13571167 59.34544373 C-1.13718777 55.65077837 -1.13503715 51.95613716 -1.13037109 48.26147461 C-1.12467804 43.5222077 -1.12795068 38.78299747 -1.13394356 34.04373264 C-1.13755509 30.40552848 -1.13640778 26.76733779 -1.13381577 23.12913322 C-1.13314792 21.38160127 -1.13396996 19.63406809 -1.13629532 17.88653755 C-1.13883106 15.44458907 -1.13496799 13.00273264 -1.12939453 10.56079102 C-1.13141876 9.83601059 -1.13344299 9.11123016 -1.13552856 8.36448669 C-1.12254013 5.29703553 -0.97823352 2.93470056 0 0 Z " fill="#011179" transform="translate(270,72)"/>
<path d="M0 0 C0.70253906 0.00386719 1.40507813 0.00773437 2.12890625 0.01171875 C2.83144531 0.00785156 3.53398438 0.00398438 4.2578125 0 C9.50229247 0.01010497 9.50229247 0.01010497 10.62890625 1.13671875 C10.72396677 3.69261763 10.75447386 6.22139847 10.74243164 8.77758789 C10.74257767 9.5775267 10.74272369 10.37746552 10.74287415 11.2016449 C10.7421748 13.8584154 10.73438143 16.51511668 10.7265625 19.171875 C10.7246984 21.00890566 10.72327446 22.84593681 10.72227478 24.68296814 C10.718449 29.52781537 10.70861821 34.37263283 10.6975708 39.21746826 C10.68735797 44.15734453 10.68277744 49.0972256 10.67773438 54.03710938 C10.66699599 63.73699438 10.64939871 73.43684944 10.62890625 83.13671875 C5.34890625 83.13671875 0.06890625 83.13671875 -5.37109375 83.13671875 C-5.70109375 81.48671875 -6.03109375 79.83671875 -6.37109375 78.13671875 C-6.91378906 78.48605469 -7.45648437 78.83539063 -8.015625 79.1953125 C-8.73105469 79.65035156 -9.44648437 80.10539062 -10.18359375 80.57421875 C-10.89128906 81.02667969 -11.59898437 81.47914063 -12.328125 81.9453125 C-17.63302706 85.03899343 -23.42122061 84.76721688 -29.37109375 84.13671875 C-37.31747112 81.66525131 -42.66809906 77.14290828 -46.5859375 69.88671875 C-51.55259041 58.85756779 -51.23528146 47.49025996 -47.37109375 36.13671875 C-43.34388044 28.15667338 -37.85886275 22.96597508 -29.37109375 20.13671875 C-21.56647363 19.43141234 -16.03631572 19.94009751 -9.37109375 24.13671875 C-8.71109375 24.79671875 -8.05109375 25.45671875 -7.37109375 26.13671875 C-7.33350952 25.00858765 -7.33350952 25.00858765 -7.29516602 23.85766602 C-7.17958861 20.47132679 -7.0566903 17.08529262 -6.93359375 13.69921875 C-6.89427734 12.51521484 -6.85496094 11.33121094 -6.81445312 10.11132812 C-6.75161133 8.42426758 -6.75161133 8.42426758 -6.6875 6.703125 C-6.65084229 5.66099854 -6.61418457 4.61887207 -6.57641602 3.54516602 C-6.19563768 -0.9213955 -3.97978424 0.00766818 0 0 Z M-29.18359375 37.40234375 C-33.41409661 43.58110451 -33.83826663 50.42022334 -32.87890625 57.65625 C-31.95536476 62.16739498 -30.29995771 65.06711783 -27.30859375 68.51171875 C-22.984839 70.90358308 -19.1991952 70.99556372 -14.37109375 70.13671875 C-9.78397963 67.6346565 -8.17484679 65.39344602 -6.43359375 60.51171875 C-4.60722852 53.16251257 -4.81016047 46.16988876 -8.74609375 39.57421875 C-10.51644606 36.96213452 -11.64862543 35.95169763 -14.37109375 34.13671875 C-19.82865664 33.24434616 -25.05943412 33.23131867 -29.18359375 37.40234375 Z " fill="#001077" transform="translate(821.37109375,72.86328125)"/>
<path d="M0 0 C5.28 0 10.56 0 16 0 C17.74506615 1.74506615 17.23282784 4.19039143 17.31640625 6.56640625 C17.35830078 7.69111328 17.40019531 8.81582031 17.44335938 9.97460938 C17.48267578 11.15861328 17.52199219 12.34261719 17.5625 13.5625 C17.60568359 14.75037109 17.64886719 15.93824219 17.69335938 17.16210938 C17.79983546 20.10794784 17.90184841 23.0538743 18 26 C18.721875 25.38125 19.44375 24.7625 20.1875 24.125 C26.71038074 19.19660122 33.07333484 19.38871482 41 20 C46.65259963 21.67484433 50.98658805 25.98282444 54 31 C55.99606989 37.39408739 56.27207258 43.63634802 56.1953125 50.28515625 C56.1924826 51.22685165 56.18965271 52.16854706 56.18673706 53.13877869 C56.17564207 56.11348791 56.15055802 59.08788351 56.125 62.0625 C56.11495637 64.09309458 56.10583296 66.12369392 56.09765625 68.15429688 C56.07573784 73.10298336 56.041283 78.05143871 56 83 C53.37472811 83.05382106 50.75055287 83.09358313 48.125 83.125 C47.37863281 83.14175781 46.63226562 83.15851563 45.86328125 83.17578125 C43.90805539 83.1933959 41.95257979 83.10320189 40 83 C39.01 82.01 39.01 82.01 38 81 C38.03222656 78.92138672 38.03222656 78.92138672 38.390625 76.3046875 C39.17248459 69.21474776 38.98875022 62.24409756 38.75 55.125 C38.72292969 53.83335938 38.69585938 52.54171875 38.66796875 51.2109375 C38.60802734 49.34695312 38.60802734 49.34695312 38.546875 47.4453125 C38.51432617 46.32656738 38.48177734 45.20782227 38.44824219 44.05517578 C37.95257332 40.67674433 37.01438016 38.73468491 35 36 C31.80621918 34.40310959 28.47478685 34.62651043 25 35 C21.13299395 36.68130698 19.58375195 38.15407995 18 42 C17.6786595 44.05493662 17.6786595 44.05493662 17.68115234 46.21777344 C17.66128265 47.03832214 17.64141296 47.85887085 17.62094116 48.70428467 C17.60361435 50.01855438 17.60361435 50.01855438 17.5859375 51.359375 C17.56657135 52.26375305 17.5472052 53.1681311 17.5272522 54.09991455 C17.46756169 56.98318099 17.42111314 59.86648758 17.375 62.75 C17.33681053 64.70704848 17.29775823 66.66408033 17.2578125 68.62109375 C17.16186875 73.41392711 17.07779873 78.20683915 17 83 C11.39 83 5.78 83 0 83 C0 55.61 0 28.22 0 0 Z " fill="#011178" transform="translate(559,73)"/>
<path d="M0 0 C6.45609729 3.97298295 9.25596495 10.05499924 12 17 C12.79302222 20.67122641 13.11931184 24.12541836 13.0625 27.875 C13.05347656 28.65617187 13.04445313 29.43734375 13.03515625 30.2421875 C13.02355469 30.82226562 13.01195312 31.40234375 13 32 C9.56395235 33.71802382 5.61561104 33.1196618 1.8359375 33.09765625 C0.92872955 33.0962413 0.02152161 33.09482635 -0.91317749 33.09336853 C-3.81715155 33.08776096 -6.72104915 33.07520718 -9.625 33.0625 C-11.59114472 33.05748598 -13.55729065 33.0529229 -15.5234375 33.04882812 C-20.3489879 33.03778906 -25.17448097 33.02051935 -30 33 C-29.38953022 34.62673014 -28.76914459 36.2497417 -28.14453125 37.87109375 C-27.80010986 38.77529053 -27.45568848 39.6794873 -27.10083008 40.61108398 C-26.11103424 43.17723664 -26.11103424 43.17723664 -23.6875 45.0625 C-18.80266477 46.76651229 -15.41797714 47.41561399 -10.375 45.9375 C-6.77880144 44.22680415 -6.77880144 44.22680415 -4.9375 40.6875 C-2 38 -2 38 1.38671875 37.98828125 C5.01520385 38.4688996 8.47698525 39.00396442 12 40 C12.33 40.66 12.66 41.32 13 42 C9.56714662 49.98605221 4.43867048 55.1985534 -3.19921875 59.1328125 C-10.78618762 61.48191583 -21.75199016 61.45137946 -29.125 58.4375 C-37.54399047 53.72352695 -42.82926179 47.90365921 -45.71484375 38.7265625 C-48.35390634 28.06681949 -47.0505144 18.17320008 -41.7265625 8.59765625 C-32.44965096 -5.35968803 -14.22277208 -7.79791329 0 0 Z M-27.75 14.375 C-29.2703411 17.29212297 -29.2703411 17.29212297 -30 22 C-21.09 22 -12.18 22 -3 22 C-5.06191858 13.52446132 -5.06191858 13.52446132 -8.625 10.4375 C-15.8003465 7.3813339 -22.87918301 7.76460551 -27.75 14.375 Z " fill="#011178" transform="translate(397,97)"/>
<path d="M0 0 C4.51330537 3.98454993 7.55204116 8.44651332 8.31884766 14.52929688 C8.35026855 15.41681641 8.38168945 16.30433594 8.4140625 17.21875 C8.47231201 18.72695312 8.47231201 18.72695312 8.53173828 20.265625 C8.57790283 21.86664063 8.57790283 21.86664063 8.625 23.5 C8.66222168 24.59828125 8.69944336 25.6965625 8.73779297 26.828125 C8.96871697 34.21769318 9.0978386 41.6069257 9.125 49 C9.12967285 49.89525391 9.1343457 50.79050781 9.13916016 51.71289062 C9.12334941 57.87665059 9.12334941 57.87665059 8 59 C5.46950598 59.07313567 2.96695163 59.09247527 0.4375 59.0625 C-0.27341797 59.05798828 -0.98433594 59.05347656 -1.71679688 59.04882812 C-3.47790013 59.03700864 -5.23896036 59.01907263 -7 59 C-7.495 55.535 -7.495 55.535 -8 52 C-8.70125 52.763125 -9.4025 53.52625 -10.125 54.3125 C-16.03573193 59.83774941 -20.88373713 60.55515267 -28.8046875 60.34765625 C-34.93757884 59.68038568 -38.47728168 57.45651318 -42.875 53.25 C-45.70075541 48.92825644 -47.33399839 45.11539878 -46.7734375 39.88671875 C-45.58672345 34.54650553 -43.74785775 30.52377342 -39.5625 26.875 C-30.49532916 21.37705778 -18.32647833 21.11389677 -8 20 C-8.2475 18.72125 -8.495 17.4425 -8.75 16.125 C-8.88921875 15.40570313 -9.0284375 14.68640625 -9.171875 13.9453125 C-9.85143954 11.86433966 -9.85143954 11.86433966 -11.80078125 10.76953125 C-15.55439271 9.4561006 -19.08849288 9.30151659 -23 10 C-26.09632649 12.43753362 -27.82300487 14.73450731 -30 18 C-34.62 17.34 -39.24 16.68 -44 16 C-42.96933267 8.78532871 -41.87143549 6.00192037 -37 1 C-27.2241172 -6.3319121 -10.25743513 -6.66928291 0 0 Z M-29 37 C-30.41142752 39.8845108 -30.41142752 39.8845108 -30 43 C-28.19003883 46.06078239 -28.19003883 46.06078239 -25 48 C-19.42718805 48.70765866 -15.76645091 48.21458317 -11 45 C-7.25179476 40.75203406 -7.68470952 36.35993814 -8 31 C-15.39171805 31 -23.52615711 31.67409881 -29 37 Z " fill="#011178" transform="translate(465,97)"/>
<path d="M0 0 C6.6735635 6.6735635 9.34649822 14.28813531 9.875 23.625 C9.94976563 24.87023437 10.02453125 26.11546875 10.1015625 27.3984375 C10.15054688 28.33945313 10.19953125 29.28046875 10.25 30.25 C0.98655058 31.21849123 -8.19321619 31.37190023 -17.5 31.3125 C-18.89062337 31.30746857 -20.28124852 31.3029086 -21.671875 31.29882812 C-25.03129705 31.28716347 -28.39062419 31.27079614 -31.75 31.25 C-31.45222656 32.52101562 -31.15445313 33.79203125 -30.84765625 35.1015625 C-30.68015869 35.81650879 -30.51266113 36.53145508 -30.34008789 37.26806641 C-29.4396257 40.29245701 -28.3777321 41.4981786 -25.75 43.25 C-21.30406538 44.98184663 -17.40563953 45.89014652 -12.875 44.0625 C-9.48863727 42.09840961 -7.48983244 40.72966488 -5.75 37.25 C-3.99967156 37.39183696 -2.24974466 37.53863429 -0.5 37.6875 C0.47453125 37.76871094 1.4490625 37.84992188 2.453125 37.93359375 C4.81461753 38.20074584 6.96901065 38.60371968 9.25 39.25 C7.66723036 46.28453174 2.85919281 51.65930494 -3 55.6875 C-10.36302052 59.87103439 -21.50624177 59.46866891 -29.69140625 57.56640625 C-31.90905993 56.6369201 -33.77308257 55.61471074 -35.75 54.25 C-36.38035156 53.82589844 -37.01070312 53.40179688 -37.66015625 52.96484375 C-44.4389583 47.79798614 -47.62466396 41.20668312 -49.1875 32.9375 C-50.36475731 23.34004996 -48.91475664 14.47892196 -43.75 6.25 C-43.21375 5.38375 -42.6775 4.5175 -42.125 3.625 C-30.15950878 -8.34049122 -13.86347334 -8.82221031 0 0 Z M-28.75 10.25 C-31.33695321 13.76086508 -31.86259791 15.81298955 -32.75 20.25 C-23.84 20.25 -14.93 20.25 -5.75 20.25 C-7.93197897 11.96162197 -7.93197897 11.96162197 -10.8125 8.6875 C-16.61018103 5.85033694 -23.74757263 5.85392746 -28.75 10.25 Z " fill="#011177" transform="translate(961.75,98.75)"/>
<path d="M0 0 C0 4.95 0 9.9 0 15 C4.29 15 8.58 15 13 15 C13 19.62 13 24.24 13 29 C8.33041073 29.93391785 5.58533383 29.80917656 1 29 C0.95046313 33.19920237 0.91421589 37.39824869 0.89013672 41.59765625 C0.88009573 43.02542078 0.86646019 44.45316483 0.84912109 45.88085938 C0.82478848 47.93624941 0.81349798 49.99136692 0.8046875 52.046875 C0.79421387 53.28276367 0.78374023 54.51865234 0.77294922 55.79199219 C0.81291295 59.26407828 0.81291295 59.26407828 3 63 C6.3 63 9.6 63 13 63 C13.95261487 67.76307437 14.08333357 72.1666528 14 77 C6.05656837 78.77474869 -2.80240762 79.39036814 -10 75 C-13.20163319 72.14966821 -15.21649364 69.24550753 -16 65 C-16.08363974 62.16308375 -16.11621679 59.35182011 -16.09765625 56.515625 C-16.0962413 55.70003113 -16.09482635 54.88443726 -16.09336853 54.04412842 C-16.08778303 51.44604788 -16.07523321 48.84805437 -16.0625 46.25 C-16.05748312 44.48567833 -16.05292054 42.72135531 -16.04882812 40.95703125 C-16.03781835 36.63798744 -16.02056369 32.31900846 -16 28 C-16.66 28.33 -17.32 28.66 -18 29 C-21.5 29.1875 -21.5 29.1875 -25 29 C-25.66 28.34 -26.32 27.68 -27 27 C-26.9765625 24.1796875 -26.9765625 24.1796875 -26.625 20.875 C-26.51414062 19.77929688 -26.40328125 18.68359375 -26.2890625 17.5546875 C-26.19367188 16.71164063 -26.09828125 15.86859375 -26 15 C-22.7 15 -19.4 15 -16 15 C-16 10.38 -16 5.76 -16 1 C-13.52085964 0.83293398 -11.04168987 0.66632824 -8.5625 0.5 C-7.85544922 0.45230469 -7.14839844 0.40460938 -6.41992188 0.35546875 C-1.11328125 0 -1.11328125 0 0 0 Z " fill="#001078" transform="translate(536,79)"/>
<path d="M0 0 C5.28 0 10.56 0 16 0 C16.99475268 3.97901072 17.14784635 7.52582416 17.14526367 11.58251953 C17.14862228 12.34066956 17.1519809 13.09881958 17.15544128 13.87994385 C17.16492532 16.3809168 17.16689274 18.88182269 17.16796875 21.3828125 C17.17118177 23.12108386 17.17454588 24.85935495 17.17805481 26.59762573 C17.18403874 30.23745349 17.18589533 33.87725752 17.18530273 37.51708984 C17.18520085 42.18918039 17.19888353 46.86111986 17.21607494 51.53317451 C17.22716914 55.12072454 17.22922278 58.70823764 17.22869301 62.29580307 C17.22987586 64.01904702 17.23431459 65.74229185 17.24202538 67.46551895 C17.2517786 69.86921195 17.24896654 72.27257163 17.24291992 74.67626953 C17.24853943 75.3921524 17.25415894 76.10803528 17.25994873 76.84561157 C17.22831977 81.77168023 17.22831977 81.77168023 15 84 C10.05 83.67 5.1 83.34 0 83 C0 55.61 0 28.22 0 0 Z " fill="#011076" transform="translate(486,73)"/>
<path d="M0 0 C5.28 0.33 10.56 0.66 16 1 C16.33 2.98 16.66 4.96 17 7 C17.7425 6.21625 18.485 5.4325 19.25 4.625 C22.35358187 1.66249004 24.27022473 0.13104358 28.578125 -0.1953125 C29.90070312 -0.16050781 29.90070312 -0.16050781 31.25 -0.125 C33.60125 -0.063125 33.60125 -0.063125 36 0 C36 5.28 36 10.56 36 16 C33.4321875 16.1546875 33.4321875 16.1546875 30.8125 16.3125 C24.88405094 16.8316672 24.88405094 16.8316672 20 20 C17.24620585 25.32822241 16.53885774 29.61181118 16.48828125 35.55859375 C16.47033005 36.34774673 16.45237885 37.13689972 16.43388367 37.94996643 C16.38013472 40.4457582 16.34600035 42.94136272 16.3125 45.4375 C16.2792955 47.13999982 16.24480298 48.84247504 16.20898438 50.54492188 C16.12202689 54.69663621 16.06165987 58.84752637 16 63 C10.72 63 5.44 63 0 63 C-1.07738029 59.76785913 -1.08578498 57.54660374 -1.02172852 54.15161133 C-1.00163223 52.9505928 -0.98153595 51.74957428 -0.96083069 50.51216125 C-0.92027809 48.5667469 -0.92027809 48.5667469 -0.87890625 46.58203125 C-0.85459886 45.24111235 -0.83075561 43.90018496 -0.80735779 42.55924988 C-0.74457831 39.03282999 -0.67549444 35.50656069 -0.60510254 31.98028564 C-0.53436357 28.38080696 -0.46957992 24.78122166 -0.40429688 21.18164062 C-0.27536368 14.12097616 -0.13922054 7.0604702 0 0 Z " fill="#001179" transform="translate(700,93)"/>
<path d="M0 0 C5.28 0 10.56 0 16 0 C16 20.46 16 40.92 16 62 C10.72 62 5.44 62 0 62 C-0.15302347 54.0639459 -0.30178708 46.12784752 -0.4429636 38.19157505 C-0.50868325 34.50681052 -0.57630074 30.82210084 -0.64819336 27.13745117 C-0.71745021 23.58436412 -0.78180302 20.03121957 -0.84269524 16.47797966 C-0.86684925 15.11951384 -0.89279758 13.76107875 -0.92053413 12.40268135 C-0.95895576 10.50625504 -0.99051816 8.60969346 -1.02172852 6.71313477 C-1.05170677 5.09097801 -1.05170677 5.09097801 -1.08229065 3.43605042 C-1 1 -1 1 0 0 Z " fill="#001179" transform="translate(745,94)"/>
<path d="M0 0 C3.04054529 0.06550546 4.3664462 0.36948431 7.1875 1.75 C10.12127859 5.39499764 10.64656315 8.68592996 10.25 13.3125 C8.74392795 16.3901255 7.51632385 17.69304288 4.4453125 19.1953125 C1.42706553 20.21705369 -0.73086691 20.66587757 -3.7890625 19.60546875 C-6.3943227 18.17418383 -8.39614684 17.02020633 -9.75 14.3125 C-10.25698467 9.15815588 -10.25698467 9.15815588 -9.75 6.3125 C-7.3125 3.375 -7.3125 3.375 -4.75 1.3125 C-3.75 0.3125 -3.75 0.3125 0 0 Z " fill="#001177" transform="translate(752.75,67.6875)"/>
<path d="M0 0 C3.24268686 2.64534981 4.80645745 4.58068793 5.375 8.75 C4.97374459 12.22754691 4.08329968 14.26986075 1.69140625 16.859375 C-1.08298213 18.73032513 -3.57592829 18.69430538 -6.84375 18.44921875 C-10.21223532 17.74745097 -11.82316203 16.65302128 -14 14 C-15.12338954 10.13834846 -15.4060724 7.99262141 -13.875 4.25 C-9.67423845 -0.79091386 -6.37280252 -1.73803705 0 0 Z " fill="#5374FC" transform="translate(218,28)"/>
<path d="M0 0 C4.95 0 9.9 0 15 0 C15 1.98 15 3.96 15 6 C14.67 6 14.34 6 14 6 C14 4.35 14 2.7 14 1 C9.71 1 5.42 1 1 1 C1 19.81 1 38.62 1 58 C5.29 58.33 9.58 58.66 14 59 C14 47.78 14 36.56 14 25 C14.66 24.67 15.32 24.34 16 24 C16 36.21 16 48.42 16 61 C10.72 61 5.44 61 0 61 C-1.0611791 57.81646269 -1.08692246 55.67458372 -1.02172852 52.33520508 C-1.00163223 51.17422806 -0.98153595 50.01325104 -0.96083069 48.8170929 C-0.93379562 47.56389755 -0.90676056 46.31070221 -0.87890625 45.01953125 C-0.85529526 43.73640549 -0.83168427 42.45327972 -0.80735779 41.13127136 C-0.74458633 37.72321537 -0.67550022 34.31531552 -0.60510254 30.90740967 C-0.5343563 27.4285797 -0.46957701 23.9496392 -0.40429688 20.47070312 C-0.27537402 13.64701333 -0.13922907 6.82348721 0 0 Z " fill="#030D64" transform="translate(700,95)"/>
<path d="M0 0 C0.70253906 0.00386719 1.40507813 0.00773437 2.12890625 0.01171875 C2.83144531 0.00785156 3.53398438 0.00398438 4.2578125 0 C9.50229247 0.01010497 9.50229247 0.01010497 10.62890625 1.13671875 C10.72396677 3.69261763 10.75447386 6.22139847 10.74243164 8.77758789 C10.74257767 9.5775267 10.74272369 10.37746552 10.74287415 11.2016449 C10.7421748 13.8584154 10.73438143 16.51511668 10.7265625 19.171875 C10.7246984 21.00890566 10.72327446 22.84593681 10.72227478 24.68296814 C10.718449 29.52781537 10.70861821 34.37263283 10.6975708 39.21746826 C10.68735797 44.15734453 10.68277744 49.0972256 10.67773438 54.03710938 C10.66699599 63.73699438 10.64939871 73.43684944 10.62890625 83.13671875 C5.34890625 83.13671875 0.06890625 83.13671875 -5.37109375 83.13671875 C-5.37109375 82.80671875 -5.37109375 82.47671875 -5.37109375 82.13671875 C-0.42109375 82.13671875 4.52890625 82.13671875 9.62890625 82.13671875 C9.62890625 55.73671875 9.62890625 29.33671875 9.62890625 2.13671875 C5.00890625 2.46671875 0.38890625 2.79671875 -4.37109375 3.13671875 C-4.70109375 11.05671875 -5.03109375 18.97671875 -5.37109375 27.13671875 C-5.70109375 27.13671875 -6.03109375 27.13671875 -6.37109375 27.13671875 C-6.39995912 22.82423266 -6.4178463 18.51177113 -6.43359375 14.19921875 C-6.44197266 12.96751953 -6.45035156 11.73582031 -6.45898438 10.46679688 C-6.46220703 9.29697266 -6.46542969 8.12714844 -6.46875 6.921875 C-6.47398682 5.837854 -6.47922363 4.75383301 -6.48461914 3.63696289 C-6.2767648 -0.9407495 -4.04468673 0.00779323 0 0 Z " fill="#07228E" transform="translate(821.37109375,72.86328125)"/>
<path d="M0 0 C5.28 0 10.56 0 16 0 C15.67 0.66 15.34 1.32 15 2 C11.04 2 7.08 2 3 2 C3.01160156 3.26585938 3.02320313 4.53171875 3.03515625 5.8359375 C3.14097637 23.57238115 2.58488482 41.27590099 2 59 C6.62 59 11.24 59 16 59 C16 59.33 16 59.66 16 60 C11.05 60 6.1 60 1 60 C0.67 40.2 0.34 20.4 0 0 Z " fill="#000A64" transform="translate(744,95)"/>
<path d="M0 0 C7.02653722 -0.4763754 7.02653722 -0.4763754 10.9375 1.4375 C13.87127859 5.08249764 14.39656315 8.37342996 14 13 C12.49392795 16.0776255 11.26632385 17.38054288 8.1953125 18.8828125 C5.17706553 19.90455369 3.01913309 20.35337757 -0.0390625 19.29296875 C-2.6443227 17.86168383 -4.64614684 16.70770633 -6 14 C-6.039992 12.00039988 -6.04346799 9.99952758 -6 8 C-5.34 8 -4.68 8 -4 8 C-3.690625 9.134375 -3.38125 10.26875 -3.0625 11.4375 C-2.37075469 14.78775099 -2.37075469 14.78775099 -1 16 C0.4555937 16.09858603 1.91607919 16.12972143 3.375 16.125 C4.56222656 16.12886719 4.56222656 16.12886719 5.7734375 16.1328125 C8.17343496 16.08617666 8.17343496 16.08617666 11 15 C11.04125 13.741875 11.0825 12.48375 11.125 11.1875 C11.14820313 10.47980469 11.17140625 9.77210937 11.1953125 9.04296875 C11.13254462 6.68640281 11.13254462 6.68640281 9 4 C5.81237635 1.87491756 3.73487777 1.4979837 0 1 C0 0.67 0 0.34 0 0 Z " fill="#050F6B" transform="translate(749,68)"/>
<path d="M0 0 C1.7290774 -0.02725341 3.45828176 -0.04650987 5.1875 -0.0625 C6.15042969 -0.07410156 7.11335938 -0.08570312 8.10546875 -0.09765625 C10.85576513 -0.00486622 13.32479591 0.37888315 16 1 C16.19551338 2.60320974 16.38111983 4.20762986 16.5625 5.8125 C16.66691406 6.70582031 16.77132813 7.59914063 16.87890625 8.51953125 C17.06490294 12.32946338 15.71382879 14.57234241 14 18 C13.67 13.71 13.34 9.42 13 5 C8.71 5 4.42 5 0 5 C-0.33 4.34 -0.66 3.68 -1 3 C-0.67 2.01 -0.34 1.02 0 0 Z " fill="#111D7D" transform="translate(270,72)"/>
<path d="M0 0 C0.66 0.33 1.32 0.66 2 1 C3.72678334 6.56407966 4.25182442 12.20803845 4 18 C-3.03884577 18.7594901 -10.04906977 19.12737526 -17.125 19.1875 C-18.24442993 19.20683594 -18.24442993 19.20683594 -19.38647461 19.2265625 C-21.25916996 19.2300109 -23.13136639 19.12332146 -25 19 C-25.66 18.34 -26.32 17.68 -27 17 C-13.635 16.01 -13.635 16.01 0 15 C0 10.05 0 5.1 0 0 Z " fill="#020C68" transform="translate(968,111)"/>
<path d="M0 0 C0.33 0 0.66 0 1 0 C1.19336043 17.68173704 0.5980786 35.33123111 0 53 C-0.33 53 -0.66 53 -1 53 C-1.19456392 47.54182838 -1.37288077 42.08343631 -1.53710938 36.62426758 C-1.59497996 34.77289106 -1.65704589 32.92164016 -1.72363281 31.07055664 C-2.10234435 20.45802663 -2.22850542 10.44355384 0 0 Z " fill="#02065D" transform="translate(271,97)"/>
<path d="M0 0 C0.33 0 0.66 0 1 0 C1.02684679 2.64590014 1.04676357 5.29153096 1.0625 7.9375 C1.07087891 8.69224609 1.07925781 9.44699219 1.08789062 10.22460938 C1.09652441 12.14994313 1.05224333 14.07535581 1 16 C0 17 0 17 -3.59765625 17.09765625 C-5.08596867 17.0909822 -6.57426432 17.07902183 -8.0625 17.0625 C-8.82111328 17.05798828 -9.57972656 17.05347656 -10.36132812 17.04882812 C-12.24091871 17.0370068 -14.12046899 17.01907078 -16 17 C-16.33 16.34 -16.66 15.68 -17 15 C-16.0625 12.875 -16.0625 12.875 -15 11 C-14.67 11.99 -14.34 12.98 -14 14 C-9.71 14.33 -5.42 14.66 -1 15 C-1.020625 13.2675 -1.04125 11.535 -1.0625 9.75 C-1.10356134 6.30084769 -1.00109515 3.31070838 0 0 Z " fill="#0F1F7F" transform="translate(286,139)"/>
<path d="M0 0 C1.19947266 0.05220703 2.39894531 0.10441406 3.63476562 0.15820312 C6.56934343 0.28681012 9.50348521 0.42172092 12.4375 0.5625 C9.10740998 2.78256001 8.05465263 2.80994485 4.17578125 2.79296875 C3.13873047 2.79103516 2.10167969 2.78910156 1.03320312 2.78710938 C-0.59198242 2.76874023 -0.59198242 2.76874023 -2.25 2.75 C-3.31412109 2.74935547 -4.37824219 2.74871094 -5.47460938 2.74804688 C-11.25908166 2.71589107 -16.84234893 2.42709357 -22.5625 1.5625 C-22.5625 1.2325 -22.5625 0.9025 -22.5625 0.5625 C-14.95894962 -0.53533883 -7.66109121 -0.36885165 0 0 Z " fill="#000A62" transform="translate(311.5625,107.4375)"/>
<path d="M0 0 C1.39456452 0.00667256 2.78911118 0.01863093 4.18359375 0.03515625 C4.89451172 0.03966797 5.60542969 0.04417969 6.33789062 0.04882812 C8.09899388 0.06064761 9.86005411 0.07858362 11.62109375 0.09765625 C11.62109375 0.75765625 11.62109375 1.41765625 11.62109375 2.09765625 C7.00109375 2.42765625 2.38109375 2.75765625 -2.37890625 3.09765625 C-2.70890625 11.01765625 -3.03890625 18.93765625 -3.37890625 27.09765625 C-3.70890625 27.09765625 -4.03890625 27.09765625 -4.37890625 27.09765625 C-4.40777162 22.78517016 -4.4256588 18.47270863 -4.44140625 14.16015625 C-4.44978516 12.92845703 -4.45816406 11.69675781 -4.46679688 10.42773438 C-4.47001953 9.25791016 -4.47324219 8.08808594 -4.4765625 6.8828125 C-4.48179932 5.7987915 -4.48703613 4.71477051 -4.49243164 3.59790039 C-4.31756062 -0.25339887 -3.9730618 0.11482838 0 0 Z " fill="#102279" transform="translate(819.37890625,72.90234375)"/>
<path d="M0 0 C2.6855594 2.6855594 3.06049974 5.37621328 4 9 C4.66 9 5.32 9 6 9 C7.11375 10.1446875 7.11375 10.1446875 8.25 11.3125 C13.37737316 16.32334196 18.09998294 17.40517094 25 18 C25 18.33 25 18.66 25 19 C15.340625 19.61875 15.340625 19.61875 10.75 17.5 C0.84245977 8.49314525 0.84245977 8.49314525 0.0625 3 C0.041875 2.01 0.02125 1.02 0 0 Z " fill="#03106B" transform="translate(845,135)"/>
<path d="M0 0 C-0.33 0.66 -0.66 1.32 -1 2 C-1.99 2 -2.98 2 -4 2 C-1.19330087 7.72566622 1.6138187 10.66331692 7 14 C7.99 14.66 8.98 15.32 10 16 C5.12559864 15.70753592 2.00941328 14.89521784 -1.64453125 11.53515625 C-4.22044921 8.61776214 -7 4.99414123 -7 1 C-4.53721199 -0.231394 -2.7204945 -0.07159196 0 0 Z " fill="#04126C" transform="translate(852,162)"/>
<path d="M0 0 C0.95261487 4.76307437 1.08333357 9.1666528 1 14 C0.01 13.67 -0.98 13.34 -2 13 C-1.34 13 -0.68 13 0 13 C-0.42257276 11.5164999 -0.86356322 10.03823576 -1.3125 8.5625 C-1.67794922 7.32693359 -1.67794922 7.32693359 -2.05078125 6.06640625 C-2.36402344 5.38449219 -2.67726563 4.70257813 -3 4 C-3.99 3.67 -4.98 3.34 -6 3 C-7.34090759 2.34870203 -8.67592331 1.68486725 -10 1 C-6.59437148 0.22157062 -3.49234244 -0.09978121 0 0 Z " fill="#05187C" transform="translate(549,142)"/>
<path d="M0 0 C7.02653722 -0.4763754 7.02653722 -0.4763754 10.9375 1.4375 C13.48730027 4.60543367 13.82201014 6.9133127 14.25 10.87890625 C13.93665784 13.53741867 13.03477711 14.3414447 11 16 C11.02320313 15.38511719 11.04640625 14.77023438 11.0703125 14.13671875 C11.08835937 13.32847656 11.10640625 12.52023438 11.125 11.6875 C11.14820313 10.88699219 11.17140625 10.08648437 11.1953125 9.26171875 C11.15817322 6.71611424 11.15817322 6.71611424 9 4 C5.81237635 1.87491756 3.73487777 1.4979837 0 1 C0 0.67 0 0.34 0 0 Z " fill="#0D1971" transform="translate(749,68)"/>
<path d="M0 0 C0.33 0 0.66 0 1 0 C1.12117187 1.08539063 1.24234375 2.17078125 1.3671875 3.2890625 C1.53612469 4.73441404 1.70541425 6.17972442 1.875 7.625 C1.95363281 8.33785156 2.03226563 9.05070313 2.11328125 9.78515625 C2.62575146 14.08202185 3.46884427 17.921207 5 22 C6.98 22 8.96 22 11 22 C11 22.33 11 22.66 11 23 C7.6875 23.25 7.6875 23.25 4 23 C0.70426018 19.81411818 0.01923933 16.74725563 -0.09765625 12.20703125 C-0.09102785 10.74215562 -0.07913087 9.27729622 -0.0625 7.8125 C-0.05798828 7.06291016 -0.05347656 6.31332031 -0.04882812 5.54101562 C-0.03706354 3.69397617 -0.01912865 1.84697787 0 0 Z " fill="#010C6D" transform="translate(534,122)"/>
<path d="M0 0 C3.83349466 -0.55905131 5.8940383 -0.73863151 9.17578125 1.453125 C12.25358302 4.13143147 14.72836916 6.59255374 17 10 C17.125 12.6875 17.125 12.6875 17 15 C15 13 15 13 13.875 10.1875 C10.72677738 4.83552154 5.43482326 2.67485709 0 0 Z " fill="#010C6B" transform="translate(596,94)"/>
<path d="M0 0 C0.99 0.33 1.98 0.66 3 1 C-2.84505951 6.60151537 -12.46946744 5.12458602 -20 5 C-20 4.67 -20 4.34 -20 4 C-18.72382812 3.79503906 -17.44765625 3.59007813 -16.1328125 3.37890625 C-14.46351379 3.10694185 -12.79424447 2.83479709 -11.125 2.5625 C-10.28324219 2.42779297 -9.44148437 2.29308594 -8.57421875 2.15429688 C-7.76855469 2.02216797 -6.96289062 1.89003906 -6.1328125 1.75390625 C-5.38918457 1.63345947 -4.64555664 1.5130127 -3.87939453 1.38891602 C-1.92115353 1.06752895 -1.92115353 1.06752895 0 0 Z " fill="#010D6A" transform="translate(665,104)"/>
<path d="M0 0 C0.66 0 1.32 0 2 0 C2.54122907 6.22413434 1.12101205 11.55127662 -2 17 C-2.99 17.33 -3.98 17.66 -5 18 C-4.70351563 17.48953125 -4.40703125 16.9790625 -4.1015625 16.453125 C-2.67854637 13.28413873 -2.06786272 10.15132608 -1.375 6.75 C-1.11460937 5.48671875 -0.85421875 4.2234375 -0.5859375 2.921875 C-0.39257812 1.95765625 -0.19921875 0.9934375 0 0 Z " fill="#041069" transform="translate(900,153)"/>
<path d="M0 0 C0 0.33 0 0.66 0 1 C-1.216875 1.226875 -2.43375 1.45375 -3.6875 1.6875 C-8.01241478 2.73827155 -9.94066528 4.77529584 -13 8 C-15.8125 8.8125 -15.8125 8.8125 -18 9 C-17.34 8.67 -16.68 8.34 -16 8 C-15.7525 7.401875 -15.505 6.80375 -15.25 6.1875 C-11.6752935 -0.06823638 -6.47224899 -0.446362 0 0 Z " fill="#020E6C" transform="translate(450,104)"/>
<path d="M0 0 C0.33 0 0.66 0 1 0 C1 2.31 1 4.62 1 7 C0.07767578 6.98259766 0.07767578 6.98259766 -0.86328125 6.96484375 C-2.07564453 6.95130859 -2.07564453 6.95130859 -3.3125 6.9375 C-4.11300781 6.92589844 -4.91351563 6.91429688 -5.73828125 6.90234375 C-8.16861334 6.90342145 -8.16861334 6.90342145 -11 8 C-13.6875 7.5625 -13.6875 7.5625 -16 7 C-16 6.67 -16 6.34 -16 6 C-10.72 5.34 -5.44 4.68 0 4 C0 2.68 0 1.36 0 0 Z " fill="#031782" transform="translate(457,113)"/>
<path d="M0 0 C0.33 0 0.66 0 1 0 C0.66009167 5.37992836 0.31442207 9.53273547 -3 14 C-3.99 13.67 -4.98 13.34 -6 13 C-5.071875 11.7315625 -5.071875 11.7315625 -4.125 10.4375 C-1.86952264 7.08627655 -0.93874355 3.91143146 0 0 Z " fill="#020E6C" transform="translate(685,93)"/>
<path d="M0 0 C1.32 0.33 2.64 0.66 4 1 C4.08167446 2.41569064 4.13949698 3.83276805 4.1875 5.25 C4.22230469 6.03890625 4.25710938 6.8278125 4.29296875 7.640625 C4 10 4 10 1 14 C0.67 9.38 0.34 4.76 0 0 Z " fill="#061A81" transform="translate(283,76)"/>
<path d="M0 0 C-0.33 0.66 -0.66 1.32 -1 2 C-4.01490557 3.00496852 -6.04181692 3.10335303 -9.1875 3.0625 C-10.53908203 3.04896484 -10.53908203 3.04896484 -11.91796875 3.03515625 C-12.60503906 3.02355469 -13.29210937 3.01195312 -14 3 C-8.75250397 0.37625198 -5.91152367 -0.09534716 0 0 Z " fill="#040F6D" transform="translate(458,126)"/>
<path d="M0 0 C0.79921875 0.11085938 1.5984375 0.22171875 2.421875 0.3359375 C3.32679688 0.47902344 3.32679688 0.47902344 4.25 0.625 C4.25 0.955 4.25 1.285 4.25 1.625 C-0.04 2.285 -4.33 2.945 -8.75 3.625 C-8.75 2.965 -8.75 2.305 -8.75 1.625 C-5.5750906 -0.2828584 -3.64414789 -0.5359041 0 0 Z " fill="#000D69" transform="translate(873.75,104.375)"/>
<path d="M0 0 C0.85271484 0.19916016 0.85271484 0.19916016 1.72265625 0.40234375 C6.47151097 1.4884758 11.16780324 2.38312382 16 3 C16 3.33 16 3.66 16 4 C4.1310267 4.56122991 4.1310267 4.56122991 0 1 C0 0.67 0 0.34 0 0 Z " fill="#010D6A" transform="translate(933,142)"/>
<path d="M0 0 C0.33 0 0.66 0 1 0 C1.33 1.65 1.66 3.3 2 5 C4.64 5.33 7.28 5.66 10 6 C8 8 8 8 4.5 8.25 C1 8 1 8 -1 6 C-0.625 2.875 -0.625 2.875 0 0 Z " fill="#031B87" transform="translate(510,100)"/>
<path d="M0 0 C0.66 0 1.32 0 2 0 C1.67 3.63 1.34 7.26 1 11 C0.34 11 -0.32 11 -1 11 C-1.0270043 9.54176788 -1.04639787 8.08339325 -1.0625 6.625 C-1.07410156 5.81289062 -1.08570313 5.00078125 -1.09765625 4.1640625 C-1 2 -1 2 0 0 Z " fill="#020D6B" transform="translate(844,114)"/>
<path d="M0 0 C0.99 0.33 1.98 0.66 3 1 C1.92578125 2.72526042 0.8515625 4.45052083 -0.22265625 6.17578125 C-1.31112074 8.17133075 -1.31112074 8.17133075 0 11 C-0.99 11 -1.98 11 -3 11 C-3.32613618 6.32538149 -2.70582788 3.83325617 0 0 Z " fill="#030E63" transform="translate(425,101)"/>
<path d="M0 0 C-3.64418341 2.42945561 -4.92923364 2.0828781 -9.1875 1.625 C-10.27417969 1.51414062 -11.36085938 1.40328125 -12.48046875 1.2890625 C-13.31191406 1.19367188 -14.14335937 1.09828125 -15 1 C-15 0.67 -15 0.34 -15 0 C-9.76528314 -0.75612577 -5.22745859 -1.2063366 0 0 Z " fill="#000354" transform="translate(304,108)"/>
<path d="M0 0 C0 0.99 0 1.98 0 3 C-3.6441774 5.4294516 -5.71241272 5.16179575 -10 5 C-6.66666667 3.33333333 -3.33333333 1.66666667 0 0 Z " fill="#030F6B" transform="translate(452,151)"/>
<path d="M0 0 C0.66 0.33 1.32 0.66 2 1 C-1.75 6.875 -1.75 6.875 -4 8 C-2.25 2.25 -2.25 2.25 0 0 Z " fill="#010D6C" transform="translate(720,97)"/>
<path d="" fill="#7F7FFF" transform="translate(0,0)"/>
<path d="M0 0 C2 1 2 1 2 1 Z " fill="#0000BF" transform="translate(288,122)"/>
<path d="" fill="#00FFFF" transform="translate(0,0)"/>
<path d="" fill="#00FFFF" transform="translate(0,0)"/>
<path d="" fill="#0000FF" transform="translate(0,0)"/>
<path d="" fill="#0000FF" transform="translate(0,0)"/>
<path d="" fill="#0000FF" transform="translate(0,0)"/>
<path d="" fill="#00007F" transform="translate(0,0)"/>
<path d="" fill="#0000FF" transform="translate(0,0)"/>
<path d="" fill="#003F7F" transform="translate(0,0)"/>
<path d="" fill="#00007F" transform="translate(0,0)"/>
<path d="" fill="#0000AA" transform="translate(0,0)"/>
<path d="" fill="#0000FF" transform="translate(0,0)"/>
<path d="" fill="#7F7FFF" transform="translate(0,0)"/>
<path d="" fill="#0000FF" transform="translate(0,0)"/>
<path d="" fill="#00007F" transform="translate(0,0)"/>
<path d="" fill="#0000FF" transform="translate(0,0)"/>
<path d="" fill="#00007F" transform="translate(0,0)"/>
<path d="" fill="#0000FF" transform="translate(0,0)"/>
<path d="" fill="#0000FF" transform="translate(0,0)"/>
<path d="" fill="#0000FF" transform="translate(0,0)"/>
<path d="" fill="#0000FF" transform="translate(0,0)"/>
<path d="" fill="#0000FF" transform="translate(0,0)"/>
<path d="" fill="#0000FF" transform="translate(0,0)"/>
<path d="" fill="#0000FF" transform="translate(0,0)"/>
<path d="" fill="#0000FF" transform="translate(0,0)"/>
<path d="" fill="#0000FF" transform="translate(0,0)"/>
<path d="" fill="#00007F" transform="translate(0,0)"/>
<path d="" fill="#0000FF" transform="translate(0,0)"/>
<path d="" fill="#0000FF" transform="translate(0,0)"/>
<path d="" fill="#00007F" transform="translate(0,0)"/>
<path d="" fill="#0000FF" transform="translate(0,0)"/>
<path d="" fill="#0000FF" transform="translate(0,0)"/>
<path d="" fill="#0000FF" transform="translate(0,0)"/>
<path d="" fill="#0000FF" transform="translate(0,0)"/>
<path d="" fill="#00FFFF" transform="translate(0,0)"/>
<path d="" fill="#0000FF" transform="translate(0,0)"/>
<path d="" fill="#7F7FFF" transform="translate(0,0)"/>
</svg>
